<svg xmlns="http://www.w3.org/2000/svg" xmlns:xlink="http://www.w3.org/1999/xlink" width="500" zoomAndPan="magnify" viewBox="0 0 375 374.999991" height="500" preserveAspectRatio="xMidYMid meet" version="1.2"><defs/><g id="f317e5ac72"><rect x="0" width="375" y="0" height="374.999991" style="fill:#ffffff;fill-opacity:1;stroke:none;"/><rect x="0" width="375" y="0" height="374.999991" style="fill:#242424;fill-opacity:1;stroke:none;"/><g style="fill:#e4e2dd;fill-opacity:1;"><g transform="translate(180.318553, 226.638669)"><path style="stroke:none" d="M 72.296875 4.203125 C 71.597656 4.503906 71.046875 4.476562 70.640625 4.125 C 70.242188 3.769531 70 3.394531 69.90625 3 C 69.695312 2.195312 69.492188 0.722656 69.296875 -1.421875 C 69.097656 -3.578125 68.972656 -5.953125 68.921875 -8.546875 C 68.867188 -11.148438 68.84375 -13.453125 68.84375 -15.453125 L 68.84375 -49.65625 C 63.445312 -49.445312 58.25 -49.269531 53.25 -49.125 C 48.25 -48.976562 43.695312 -48.800781 39.59375 -48.59375 C 35.195312 -48.394531 31.347656 -48.070312 28.046875 -47.625 C 24.742188 -47.175781 21.59375 -46.703125 18.59375 -46.203125 C 17 -45.796875 15.898438 -45.664062 15.296875 -45.8125 C 14.703125 -45.96875 13.90625 -46.296875 12.90625 -46.796875 C 12.800781 -46.898438 12.695312 -46.953125 12.59375 -46.953125 C 12 -47.347656 11.203125 -47.96875 10.203125 -48.8125 C 9.203125 -49.664062 8.300781 -50.539062 7.5 -51.4375 C 6.695312 -52.34375 6.25 -52.945312 6.15625 -53.25 C 5.851562 -53.75 6.023438 -54.445312 6.671875 -55.34375 C 7.328125 -56.25 7.953125 -56.648438 8.546875 -56.546875 C 11.742188 -55.847656 15.316406 -55.347656 19.265625 -55.046875 C 23.222656 -54.742188 27.851562 -54.644531 33.15625 -54.75 C 42.851562 -54.851562 53.175781 -55.003906 64.125 -55.203125 C 75.070312 -55.398438 86.046875 -55.695312 97.046875 -56.09375 C 101.453125 -56.300781 105.726562 -56.578125 109.875 -56.921875 C 114.019531 -57.273438 117.691406 -57.675781 120.890625 -58.125 C 124.097656 -58.570312 126.398438 -59.046875 127.796875 -59.546875 C 128.898438 -59.953125 129.773438 -60.003906 130.421875 -59.703125 C 131.078125 -59.398438 131.65625 -58.847656 132.15625 -58.046875 C 132.75 -57.242188 133.367188 -56.269531 134.015625 -55.125 C 134.671875 -53.976562 135 -53.003906 135 -52.203125 C 135 -51.597656 134.648438 -51.019531 133.953125 -50.46875 C 133.253906 -49.925781 132.703125 -49.65625 132.296875 -49.65625 C 128.597656 -50.15625 124.347656 -50.425781 119.546875 -50.46875 C 114.742188 -50.519531 110.144531 -50.5 105.75 -50.40625 C 104.644531 -50.40625 103.566406 -50.40625 102.515625 -50.40625 C 101.472656 -50.40625 100.5 -50.40625 99.59375 -50.40625 L 77.40625 -49.953125 L 77.40625 -15.75 C 77.40625 -13.644531 77.253906 -11.144531 76.953125 -8.25 C 76.648438 -5.351562 76.125 -2.703125 75.375 -0.296875 C 74.625 2.097656 73.597656 3.597656 72.296875 4.203125 Z M 40.65625 -77.25 C 38.550781 -77.25 36.875 -78.097656 35.625 -79.796875 C 34.375 -81.492188 33.75 -83.992188 33.75 -87.296875 L 33.75 -101.09375 C 33.851562 -104.09375 33.53125 -106.867188 32.78125 -109.421875 C 32.03125 -111.972656 30.101562 -114.097656 27 -115.796875 C 25.894531 -116.398438 25.742188 -117.25 26.546875 -118.34375 C 27.648438 -120.050781 29.148438 -120.753906 31.046875 -120.453125 C 32.546875 -120.253906 34.320312 -119.628906 36.375 -118.578125 C 38.425781 -117.523438 40.101562 -116.445312 41.40625 -115.34375 C 42.601562 -114.144531 43.148438 -113.25 43.046875 -112.65625 C 42.742188 -111.15625 42.539062 -109.453125 42.4375 -107.546875 C 42.34375 -105.648438 42.296875 -103.703125 42.296875 -101.703125 L 42.296875 -88.203125 C 42.296875 -86.203125 42.570312 -84.847656 43.125 -84.140625 C 43.675781 -83.441406 44.953125 -83.09375 46.953125 -83.09375 C 52.453125 -83.09375 58.453125 -83.164062 64.953125 -83.3125 C 71.453125 -83.46875 77.5 -83.75 83.09375 -84.15625 C 89 -84.550781 93.578125 -85 96.828125 -85.5 C 100.078125 -86 102.898438 -86.648438 105.296875 -87.453125 C 106.597656 -87.953125 107.546875 -88.097656 108.140625 -87.890625 C 108.742188 -87.691406 109.347656 -87.242188 109.953125 -86.546875 C 110.546875 -85.953125 111.117188 -85.101562 111.671875 -84 C 112.222656 -82.894531 112.597656 -81.992188 112.796875 -81.296875 C 112.898438 -80.703125 112.550781 -80.03125 111.75 -79.28125 C 110.945312 -78.53125 110.347656 -78.15625 109.953125 -78.15625 C 106.546875 -78.351562 103.566406 -78.472656 101.015625 -78.515625 C 98.472656 -78.566406 95.773438 -78.566406 92.921875 -78.515625 C 90.078125 -78.472656 86.453125 -78.351562 82.046875 -78.15625 C 78.046875 -78.050781 73.570312 -77.921875 68.625 -77.765625 C 63.675781 -77.617188 58.722656 -77.492188 53.765625 -77.390625 C 48.816406 -77.296875 44.445312 -77.25 40.65625 -77.25 Z M 40.65625 -77.25 "/></g></g><g style="fill:#e4e2dd;fill-opacity:1;"><g transform="translate(47.527589, 162.749989)"><path style="stroke:none" d="M 101.25 3.296875 C 100.144531 3.296875 99.546875 2.796875 99.453125 1.796875 C 99.347656 0.992188 99.21875 -0.476562 99.0625 -2.625 C 98.914062 -4.769531 98.789062 -7.117188 98.6875 -9.671875 C 98.59375 -12.222656 98.546875 -14.445312 98.546875 -16.34375 L 98.546875 -108.296875 C 98.546875 -111.398438 98.421875 -113.800781 98.171875 -115.5 C 97.921875 -117.195312 97.269531 -118.617188 96.21875 -119.765625 C 95.175781 -120.921875 93.351562 -122.148438 90.75 -123.453125 C 89.945312 -123.953125 89.546875 -124.453125 89.546875 -124.953125 C 89.546875 -125.453125 89.894531 -126.125 90.59375 -126.96875 C 91.300781 -127.820312 92.050781 -128.25 92.84375 -128.25 C 94.050781 -128.25 95.550781 -127.945312 97.34375 -127.34375 C 99.144531 -126.75 100.894531 -126.078125 102.59375 -125.328125 C 104.300781 -124.578125 105.550781 -123.898438 106.34375 -123.296875 C 107.550781 -122.398438 108.101562 -121.398438 108 -120.296875 C 107.695312 -118.203125 107.46875 -116.253906 107.3125 -114.453125 C 107.164062 -112.648438 107.09375 -110.550781 107.09375 -108.15625 L 107.09375 -67.203125 C 112.394531 -67.203125 117.070312 -67.625 121.125 -68.46875 C 125.175781 -69.320312 128 -70 129.59375 -70.5 C 130.695312 -70.894531 131.5 -70.941406 132 -70.640625 C 132.5 -70.347656 132.945312 -69.898438 133.34375 -69.296875 C 133.84375 -68.597656 134.367188 -67.546875 134.921875 -66.140625 C 135.472656 -64.742188 135.75 -63.695312 135.75 -63 C 135.75 -62.394531 135.421875 -61.84375 134.765625 -61.34375 C 134.117188 -60.84375 133.644531 -60.59375 133.34375 -60.59375 C 129.644531 -61.09375 125.820312 -61.367188 121.875 -61.421875 C 117.925781 -61.472656 113.953125 -61.5 109.953125 -61.5 C 109.453125 -61.5 108.972656 -61.5 108.515625 -61.5 C 108.066406 -61.5 107.59375 -61.5 107.09375 -61.5 L 107.09375 -16.65625 C 107.09375 -15.050781 107.019531 -13.125 106.875 -10.875 C 106.726562 -8.625 106.453125 -6.421875 106.046875 -4.265625 C 105.648438 -2.117188 105.078125 -0.320312 104.328125 1.125 C 103.578125 2.570312 102.550781 3.296875 101.25 3.296875 Z M 26.09375 -34.953125 C 24 -34.847656 22.273438 -35.867188 20.921875 -38.015625 C 19.578125 -40.171875 18.90625 -42.695312 18.90625 -45.59375 L 18.90625 -87.59375 C 18.90625 -89.300781 18.878906 -91.03125 18.828125 -92.78125 C 18.773438 -94.53125 18.550781 -96.253906 18.15625 -97.953125 C 17.75 -99.347656 16.945312 -100.796875 15.75 -102.296875 C 14.550781 -103.796875 13.351562 -104.945312 12.15625 -105.75 C 11.25 -106.550781 11.097656 -107.453125 11.703125 -108.453125 C 13.003906 -110.148438 14.453125 -110.800781 16.046875 -110.40625 C 17.453125 -110.101562 19.253906 -109.347656 21.453125 -108.140625 C 23.648438 -106.941406 25.398438 -105.84375 26.703125 -104.84375 C 28.097656 -103.644531 28.695312 -102.597656 28.5 -101.703125 C 28.300781 -100.296875 28.097656 -98.269531 27.890625 -95.625 C 27.691406 -92.976562 27.59375 -90.65625 27.59375 -88.65625 L 27.59375 -47.546875 C 27.59375 -46.242188 27.867188 -45.269531 28.421875 -44.625 C 28.972656 -43.976562 30.25 -43.703125 32.25 -43.796875 C 37.75 -43.898438 43.398438 -44.453125 49.203125 -45.453125 C 55.003906 -46.453125 60.578125 -47.648438 65.921875 -49.046875 C 71.273438 -50.453125 75.925781 -51.828125 79.875 -53.171875 C 83.820312 -54.523438 86.644531 -55.601562 88.34375 -56.40625 C 90.144531 -57.195312 91.21875 -56.914062 91.5625 -55.5625 C 91.914062 -54.21875 91.296875 -52.945312 89.703125 -51.75 C 88.398438 -50.945312 86.023438 -49.84375 82.578125 -48.4375 C 79.128906 -47.039062 75.03125 -45.566406 70.28125 -44.015625 C 65.53125 -42.472656 60.503906 -41.023438 55.203125 -39.671875 C 49.898438 -38.328125 44.722656 -37.203125 39.671875 -36.296875 C 34.617188 -35.398438 30.09375 -34.953125 26.09375 -34.953125 Z M 26.09375 -34.953125 "/></g></g><g style="fill:#e4e2dd;fill-opacity:1;"><g transform="translate(125.244027, 342.749977)"><path style="stroke:none" d="M 25.953125 -33.453125 C 23.847656 -33.347656 22.117188 -34.367188 20.765625 -36.515625 C 19.421875 -38.671875 18.75 -41.195312 18.75 -44.09375 L 18.75 -90.453125 C 18.75 -94.046875 18.375 -96.691406 17.625 -98.390625 C 16.875 -100.097656 14.898438 -101.601562 11.703125 -102.90625 C 10.597656 -103.40625 10.296875 -104.203125 10.796875 -105.296875 C 11.203125 -106.398438 11.78125 -107.175781 12.53125 -107.625 C 13.28125 -108.070312 14.050781 -108.25 14.84375 -108.15625 C 16.050781 -108.050781 17.703125 -107.75 19.796875 -107.25 C 21.898438 -106.75 23.648438 -106.148438 25.046875 -105.453125 C 27.953125 -105.453125 31.03125 -105.472656 34.28125 -105.515625 C 37.53125 -105.566406 40.601562 -105.695312 43.5 -105.90625 C 48.5 -106.101562 53.296875 -106.578125 57.890625 -107.328125 C 62.492188 -108.078125 65.597656 -108.75 67.203125 -109.34375 C 68.398438 -109.644531 69.273438 -109.71875 69.828125 -109.5625 C 70.378906 -109.414062 70.90625 -108.992188 71.40625 -108.296875 C 71.800781 -107.796875 72.296875 -106.96875 72.890625 -105.8125 C 73.492188 -104.664062 73.796875 -103.796875 73.796875 -103.203125 C 73.796875 -102.503906 73.519531 -101.851562 72.96875 -101.25 C 72.425781 -100.644531 71.953125 -100.34375 71.546875 -100.34375 C 68.546875 -100.550781 65.671875 -100.628906 62.921875 -100.578125 C 60.171875 -100.523438 56.546875 -100.398438 52.046875 -100.203125 C 51.242188 -100.203125 50.414062 -100.175781 49.5625 -100.125 C 48.71875 -100.070312 47.847656 -100.046875 46.953125 -100.046875 C 43.148438 -99.847656 39.75 -99.695312 36.75 -99.59375 C 33.75 -99.5 30.648438 -99.351562 27.453125 -99.15625 L 27.453125 -46.203125 C 27.453125 -44.796875 27.722656 -43.769531 28.265625 -43.125 C 28.816406 -42.476562 30.09375 -42.203125 32.09375 -42.296875 C 37.5 -42.398438 43.125 -42.953125 48.96875 -43.953125 C 54.820312 -44.953125 60.421875 -46.148438 65.765625 -47.546875 C 71.117188 -48.953125 75.769531 -50.328125 79.71875 -51.671875 C 83.675781 -53.023438 86.503906 -54.101562 88.203125 -54.90625 C 90.003906 -55.695312 91.078125 -55.414062 91.421875 -54.0625 C 91.773438 -52.71875 91.148438 -51.5 89.546875 -50.40625 C 88.242188 -49.601562 85.867188 -48.5 82.421875 -47.09375 C 78.972656 -45.695312 74.875 -44.222656 70.125 -42.671875 C 65.375 -41.117188 60.347656 -39.644531 55.046875 -38.25 C 49.742188 -36.851562 44.566406 -35.703125 39.515625 -34.796875 C 34.472656 -33.898438 29.953125 -33.453125 25.953125 -33.453125 Z M 101.25 3.296875 C 100.144531 3.296875 99.546875 2.796875 99.453125 1.796875 C 99.347656 0.992188 99.21875 -0.476562 99.0625 -2.625 C 98.914062 -4.769531 98.789062 -7.117188 98.6875 -9.671875 C 98.59375 -12.222656 98.546875 -14.445312 98.546875 -16.34375 L 98.546875 -108.296875 C 98.546875 -111.398438 98.421875 -113.800781 98.171875 -115.5 C 97.921875 -117.195312 97.269531 -118.617188 96.21875 -119.765625 C 95.175781 -120.921875 93.351562 -122.148438 90.75 -123.453125 C 89.945312 -123.953125 89.546875 -124.453125 89.546875 -124.953125 C 89.546875 -125.453125 89.894531 -126.125 90.59375 -126.96875 C 91.300781 -127.820312 92.050781 -128.25 92.84375 -128.25 C 94.050781 -128.25 95.550781 -127.945312 97.34375 -127.34375 C 99.144531 -126.75 100.894531 -126.078125 102.59375 -125.328125 C 104.300781 -124.578125 105.550781 -123.898438 106.34375 -123.296875 C 107.550781 -122.398438 108.101562 -121.398438 108 -120.296875 C 107.695312 -118.203125 107.46875 -116.253906 107.3125 -114.453125 C 107.164062 -112.648438 107.09375 -110.550781 107.09375 -108.15625 L 107.09375 -67.203125 C 112.394531 -67.203125 117.070312 -67.625 121.125 -68.46875 C 125.175781 -69.320312 128 -70 129.59375 -70.5 C 130.695312 -70.894531 131.5 -70.941406 132 -70.640625 C 132.5 -70.347656 132.945312 -69.898438 133.34375 -69.296875 C 133.84375 -68.597656 134.367188 -67.546875 134.921875 -66.140625 C 135.472656 -64.742188 135.75 -63.695312 135.75 -63 C 135.75 -62.394531 135.421875 -61.84375 134.765625 -61.34375 C 134.117188 -60.84375 133.644531 -60.59375 133.34375 -60.59375 C 129.644531 -61.09375 125.820312 -61.367188 121.875 -61.421875 C 117.925781 -61.472656 113.953125 -61.5 109.953125 -61.5 C 109.453125 -61.5 108.972656 -61.5 108.515625 -61.5 C 108.066406 -61.5 107.59375 -61.5 107.09375 -61.5 L 107.09375 -16.65625 C 107.09375 -15.050781 107.019531 -13.125 106.875 -10.875 C 106.726562 -8.625 106.453125 -6.421875 106.046875 -4.265625 C 105.648438 -2.117188 105.078125 -0.320312 104.328125 1.125 C 103.578125 2.570312 102.550781 3.296875 101.25 3.296875 Z M 101.25 3.296875 "/></g></g></g></svg>